<svg width="65" height="65" viewBox="0 0 65 65" fill="none" xmlns="http://www.w3.org/2000/svg">
<path d="M36.5625 20.3125H40.625V24.375H36.5625V20.3125ZM24.375 20.3125H28.4375V24.375H24.375V20.3125Z" fill="black"/>
<path d="M52.8125 40.625H42.6562V36.5625H44.6875C45.7649 36.5625 46.7983 36.1345 47.5601 35.3726C48.322 34.6108 48.75 33.5774 48.75 32.5V24.375H52.8125V20.3125H48.75V16.25C48.75 15.1726 48.322 14.1392 47.5601 13.3774C46.7983 12.6155 45.7649 12.1875 44.6875 12.1875H40.625V4.0625H36.5625V12.1875H28.4375V4.0625H24.375V12.1875H20.3125C19.2351 12.1875 18.2017 12.6155 17.4399 13.3774C16.678 14.1392 16.25 15.1726 16.25 16.25V20.3125H12.1875V24.375H16.25V32.5C16.25 33.5774 16.678 34.6108 17.4399 35.3726C18.2017 36.1345 19.2351 36.5625 20.3125 36.5625H22.3438V40.625H12.1875C11.1101 40.625 10.0767 41.053 9.31488 41.8149C8.55301 42.5767 8.125 43.6101 8.125 44.6875V60.9375H12.1875V44.6875H52.8125V60.9375H56.875V44.6875C56.875 43.6101 56.447 42.5767 55.6851 41.8149C54.9233 41.053 53.8899 40.625 52.8125 40.625ZM20.3125 16.25H44.6875V32.5H20.3125V16.25ZM26.4062 36.5625H38.5938V40.625H26.4062V36.5625Z" fill="black"/>
</svg>
