<svg width="65" height="65" viewBox="0 0 65 65" fill="none" xmlns="http://www.w3.org/2000/svg">
<path d="M14.2188 14.2188C15.3406 14.2188 16.25 13.3093 16.25 12.1875C16.25 11.0657 15.3406 10.1562 14.2188 10.1562C13.0969 10.1562 12.1875 11.0657 12.1875 12.1875C12.1875 13.3093 13.0969 14.2188 14.2188 14.2188Z" fill="black"/>
<path d="M22.3438 14.2188C23.4656 14.2188 24.375 13.3093 24.375 12.1875C24.375 11.0657 23.4656 10.1562 22.3438 10.1562C21.2219 10.1562 20.3125 11.0657 20.3125 12.1875C20.3125 13.3093 21.2219 14.2188 22.3438 14.2188Z" fill="black"/>
<path d="M57.8906 52.8125C59.5734 52.8125 60.9375 51.4484 60.9375 49.7656C60.9375 48.0829 59.5734 46.7188 57.8906 46.7188C56.2079 46.7188 54.8438 48.0829 54.8438 49.7656C54.8438 51.4484 56.2079 52.8125 57.8906 52.8125Z" fill="black"/>
<path d="M47.7344 58.9062C49.4171 58.9062 50.7812 57.5421 50.7812 55.8594C50.7812 54.1766 49.4171 52.8125 47.7344 52.8125C46.0516 52.8125 44.6875 54.1766 44.6875 55.8594C44.6875 57.5421 46.0516 58.9062 47.7344 58.9062Z" fill="black"/>
<path d="M37.5781 52.8125C39.2609 52.8125 40.625 51.4484 40.625 49.7656C40.625 48.0829 39.2609 46.7188 37.5781 46.7188C35.8954 46.7188 34.5312 48.0829 34.5312 49.7656C34.5312 51.4484 35.8954 52.8125 37.5781 52.8125Z" fill="black"/>
<path d="M37.5781 42.6562C39.2609 42.6562 40.625 41.2921 40.625 39.6094C40.625 37.9266 39.2609 36.5625 37.5781 36.5625C35.8954 36.5625 34.5312 37.9266 34.5312 39.6094C34.5312 41.2921 35.8954 42.6562 37.5781 42.6562Z" fill="black"/>
<path d="M47.7344 36.5625C49.4171 36.5625 50.7812 35.1984 50.7812 33.5156C50.7812 31.8329 49.4171 30.4688 47.7344 30.4688C46.0516 30.4688 44.6875 31.8329 44.6875 33.5156C44.6875 35.1984 46.0516 36.5625 47.7344 36.5625Z" fill="black"/>
<path d="M57.8906 42.6562C59.5734 42.6562 60.9375 41.2921 60.9375 39.6094C60.9375 37.9266 59.5734 36.5625 57.8906 36.5625C56.2079 36.5625 54.8438 37.9266 54.8438 39.6094C54.8438 41.2921 56.2079 42.6562 57.8906 42.6562Z" fill="black"/>
<path d="M56.875 4.0625H8.125C7.04756 4.0625 6.01425 4.49051 5.25238 5.25238C4.49051 6.01425 4.0625 7.04756 4.0625 8.125V48.75C4.0625 49.8274 4.49051 50.8608 5.25238 51.6226C6.01425 52.3845 7.04756 52.8125 8.125 52.8125H26.4062V48.75H8.125V20.3125H56.875V28.4375H60.9375V8.125C60.9375 7.04756 60.5095 6.01425 59.7476 5.25238C58.9858 4.49051 57.9524 4.0625 56.875 4.0625ZM56.875 16.25H8.125V8.125H56.875V16.25Z" fill="black"/>
</svg>
