<svg width="65" height="65" viewBox="0 0 65 65" fill="none" xmlns="http://www.w3.org/2000/svg">
<path d="M59.8152 32.7133L40.625 23.1207V12.1875C40.625 10.0326 39.769 7.96599 38.2452 6.44226C36.7215 4.91852 34.6549 4.0625 32.5 4.0625C30.3451 4.0625 28.2785 4.91852 26.7548 6.44226C25.231 7.96599 24.375 10.0326 24.375 12.1875V23.1207L5.18477 32.7133C4.8473 32.8822 4.56354 33.1417 4.36531 33.4628C4.16709 33.7839 4.06223 34.1539 4.0625 34.5312V42.6562C4.06267 42.9567 4.12949 43.2534 4.25814 43.5249C4.38679 43.7964 4.57408 44.036 4.8065 44.2264C5.03892 44.4168 5.31069 44.5533 5.60222 44.626C5.89374 44.6987 6.19777 44.7058 6.49238 44.6469L24.375 41.0719V45.8783L20.9066 49.3441C20.7181 49.5329 20.5685 49.757 20.4666 50.0036C20.3647 50.2502 20.3123 50.5144 20.3125 50.7812V58.9062C20.3119 59.2392 20.3932 59.5671 20.5491 59.8612C20.7051 60.1554 20.9309 60.4067 21.2068 60.593C21.4827 60.7793 21.8001 60.895 22.1312 60.9299C22.4623 60.9647 22.7969 60.9176 23.1055 60.7928L32.5 57.0324L41.8945 60.7928C42.2031 60.9176 42.5377 60.9647 42.8688 60.9299C43.1999 60.895 43.5173 60.7793 43.7932 60.593C44.0691 60.4067 44.2949 60.1554 44.4509 59.8612C44.6068 59.5671 44.6881 59.2392 44.6875 58.9062V50.7812C44.6877 50.5144 44.6353 50.2502 44.5334 50.0036C44.4315 49.757 44.2819 49.5329 44.0934 49.3441L40.625 45.8783V41.0719L58.5076 44.6469C58.8022 44.7058 59.1063 44.6987 59.3978 44.626C59.6893 44.5533 59.9611 44.4168 60.1935 44.2264C60.4259 44.036 60.6132 43.7964 60.7419 43.5249C60.8705 43.2534 60.9373 42.9567 60.9375 42.6562V34.5312C60.9378 34.1539 60.8329 33.7839 60.6347 33.4628C60.4365 33.1417 60.1527 32.8822 59.8152 32.7133ZM56.875 40.1781L38.9924 36.6031C38.6978 36.5442 38.3937 36.5513 38.1022 36.624C37.8107 36.6967 37.5389 36.8332 37.3065 37.0236C37.0741 37.214 36.8868 37.4536 36.7581 37.7251C36.6295 37.9966 36.5627 38.2933 36.5625 38.5938V46.7188C36.5623 46.9856 36.6147 47.2498 36.7166 47.4964C36.8185 47.743 36.9681 47.9671 37.1566 48.1559L40.625 51.6217V55.9051L33.2617 52.9572C32.7776 52.7637 32.2376 52.7637 31.7535 52.9572L24.375 55.9051V51.6217L27.8434 48.1559C28.0319 47.9671 28.1815 47.743 28.2834 47.4964C28.3853 47.2498 28.4377 46.9856 28.4375 46.7188V38.5938C28.4373 38.2933 28.3705 37.9966 28.2419 37.7251C28.1132 37.4536 27.9259 37.214 27.6935 37.0236C27.4611 36.8332 27.1893 36.6967 26.8978 36.624C26.6063 36.5513 26.3022 36.5442 26.0076 36.6031L8.125 40.1781V35.7855L27.3152 26.193C27.6527 26.0241 27.9365 25.7646 28.1347 25.4435C28.3329 25.1223 28.4378 24.7524 28.4375 24.375V12.1875C28.4375 11.1101 28.8655 10.0767 29.6274 9.31488C30.3892 8.55301 31.4226 8.125 32.5 8.125C33.5774 8.125 34.6108 8.55301 35.3726 9.31488C36.1345 10.0767 36.5625 11.1101 36.5625 12.1875V24.375C36.5622 24.7524 36.6671 25.1223 36.8653 25.4435C37.0635 25.7646 37.3473 26.0241 37.6848 26.193L56.875 35.7855V40.1781Z" fill="black"/>
</svg>
