<svg width="65" height="65" viewBox="0 0 65 65" fill="none" xmlns="http://www.w3.org/2000/svg">
<path d="M60.9375 52.8125H56.875V24.375C56.875 23.2975 56.447 22.2642 55.6851 21.5023C54.9233 20.7405 53.8899 20.3125 52.8125 20.3125H36.5625V8.12496C36.563 7.3893 36.3637 6.66731 35.9859 6.03607C35.6081 5.40482 35.066 4.88801 34.4174 4.54079C33.7689 4.19357 33.0382 4.02897 32.3034 4.06457C31.5686 4.10017 30.8573 4.33463 30.2453 4.74292L9.93281 18.2812C9.37559 18.653 8.91894 19.1568 8.60353 19.7477C8.28812 20.3387 8.12373 20.9985 8.125 21.6683V52.8125H4.0625C3.52378 52.8125 3.00712 53.0265 2.62619 53.4074C2.24526 53.7883 2.03125 54.305 2.03125 54.8437C2.03125 55.3824 2.24526 55.8991 2.62619 56.28C3.00712 56.661 3.52378 56.875 4.0625 56.875H60.9375C61.4762 56.875 61.9929 56.661 62.3738 56.28C62.7547 55.8991 62.9688 55.3824 62.9688 54.8437C62.9688 54.305 62.7547 53.7883 62.3738 53.4074C61.9929 53.0265 61.4762 52.8125 60.9375 52.8125ZM52.8125 24.375V52.8125H36.5625V24.375H52.8125ZM12.1875 21.6683L32.5 8.12496V52.8125H12.1875V21.6683ZM28.4375 28.4375V32.5C28.4375 33.0387 28.2235 33.5553 27.8426 33.9363C27.4616 34.3172 26.945 34.5312 26.4062 34.5312C25.8675 34.5312 25.3509 34.3172 24.9699 33.9363C24.589 33.5553 24.375 33.0387 24.375 32.5V28.4375C24.375 27.8987 24.589 27.3821 24.9699 27.0011C25.3509 26.6202 25.8675 26.4062 26.4062 26.4062C26.945 26.4062 27.4616 26.6202 27.8426 27.0011C28.2235 27.3821 28.4375 27.8987 28.4375 28.4375ZM20.3125 28.4375V32.5C20.3125 33.0387 20.0985 33.5553 19.7176 33.9363C19.3366 34.3172 18.82 34.5312 18.2812 34.5312C17.7425 34.5312 17.2259 34.3172 16.8449 33.9363C16.464 33.5553 16.25 33.0387 16.25 32.5V28.4375C16.25 27.8987 16.464 27.3821 16.8449 27.0011C17.2259 26.6202 17.7425 26.4062 18.2812 26.4062C18.82 26.4062 19.3366 26.6202 19.7176 27.0011C20.0985 27.3821 20.3125 27.8987 20.3125 28.4375ZM20.3125 42.6562V46.7187C20.3125 47.2574 20.0985 47.7741 19.7176 48.155C19.3366 48.536 18.82 48.75 18.2812 48.75C17.7425 48.75 17.2259 48.536 16.8449 48.155C16.464 47.7741 16.25 47.2574 16.25 46.7187V42.6562C16.25 42.1175 16.464 41.6008 16.8449 41.2199C17.2259 40.839 17.7425 40.625 18.2812 40.625C18.82 40.625 19.3366 40.839 19.7176 41.2199C20.0985 41.6008 20.3125 42.1175 20.3125 42.6562ZM28.4375 42.6562V46.7187C28.4375 47.2574 28.2235 47.7741 27.8426 48.155C27.4616 48.536 26.945 48.75 26.4062 48.75C25.8675 48.75 25.3509 48.536 24.9699 48.155C24.589 47.7741 24.375 47.2574 24.375 46.7187V42.6562C24.375 42.1175 24.589 41.6008 24.9699 41.2199C25.3509 40.839 25.8675 40.625 26.4062 40.625C26.945 40.625 27.4616 40.839 27.8426 41.2199C28.2235 41.6008 28.4375 42.1175 28.4375 42.6562Z" fill="black"/>
</svg>
