<svg width="65" height="65" viewBox="0 0 65 65" fill="none" xmlns="http://www.w3.org/2000/svg">
<path d="M52.8125 14.2188H45.7742L42.3135 9.02891C42.1281 8.75101 41.877 8.52313 41.5825 8.36546C41.2879 8.20779 40.9591 8.1252 40.625 8.125H24.375C24.0409 8.1252 23.7121 8.20779 23.4175 8.36546C23.123 8.52313 22.8719 8.75101 22.6865 9.02891L19.2232 14.2188H12.1875C10.5713 14.2188 9.02137 14.8608 7.87857 16.0036C6.73577 17.1464 6.09375 18.6963 6.09375 20.3125V48.75C6.09375 50.3662 6.73577 51.9161 7.87857 53.0589C9.02137 54.2017 10.5713 54.8437 12.1875 54.8438H52.8125C54.4287 54.8437 55.9786 54.2017 57.1214 53.0589C58.2642 51.9161 58.9062 50.3662 58.9062 48.75V20.3125C58.9062 18.6963 58.2642 17.1464 57.1214 16.0036C55.9786 14.8608 54.4287 14.2188 52.8125 14.2188ZM54.8438 48.75C54.8438 49.2887 54.6297 49.8054 54.2488 50.1863C53.8679 50.5672 53.3512 50.7812 52.8125 50.7812H12.1875C11.6488 50.7812 11.1321 50.5672 10.7512 50.1863C10.3703 49.8054 10.1562 49.2887 10.1562 48.75V20.3125C10.1562 19.7738 10.3703 19.2571 10.7512 18.8762C11.1321 18.4953 11.6488 18.2812 12.1875 18.2812H20.3125C20.647 18.2815 20.9764 18.1991 21.2714 18.0414C21.5664 17.8837 21.8179 17.6556 22.0035 17.3773L25.4617 12.1875H39.5357L42.9965 17.3773C43.1821 17.6556 43.4336 17.8837 43.7286 18.0414C44.0236 18.1991 44.353 18.2815 44.6875 18.2812H52.8125C53.3512 18.2812 53.8679 18.4953 54.2488 18.8762C54.6297 19.2571 54.8438 19.7738 54.8438 20.3125V48.75ZM32.5 22.3438C30.2904 22.3438 28.1304 22.999 26.2932 24.2266C24.456 25.4541 23.0241 27.1989 22.1785 29.2403C21.333 31.2817 21.1117 33.528 21.5428 35.6951C21.9739 37.8623 23.0379 39.8529 24.6003 41.4153C26.1627 42.9777 28.1533 44.0418 30.3205 44.4728C32.4876 44.9039 34.7339 44.6827 36.7753 43.8371C38.8167 42.9915 40.5615 41.5596 41.7891 39.7224C43.0167 37.8852 43.6719 35.7252 43.6719 33.5156C43.6685 30.5537 42.4904 27.714 40.396 25.6196C38.3016 23.5252 35.4619 22.3471 32.5 22.3438ZM32.5 40.625C31.0939 40.625 29.7194 40.208 28.5502 39.4269C27.3811 38.6457 26.4699 37.5353 25.9318 36.2363C25.3937 34.9372 25.2529 33.5077 25.5272 32.1287C25.8015 30.7496 26.4786 29.4828 27.4729 28.4885C28.4672 27.4943 29.7339 26.8172 31.113 26.5429C32.4921 26.2685 33.9216 26.4093 35.2206 26.9474C36.5197 27.4855 37.63 28.3967 38.4112 29.5659C39.1924 30.735 39.6094 32.1095 39.6094 33.5156C39.6094 35.4011 38.8604 37.2094 37.5271 38.5427C36.1938 39.876 34.3855 40.625 32.5 40.625Z" fill="black"/>
</svg>
