<svg width="65" height="65" viewBox="0 0 65 65" fill="none" xmlns="http://www.w3.org/2000/svg">
<path d="M62.0141 15.2344C61.7216 15.0518 61.3876 14.9468 61.0433 14.929C60.6991 14.9112 60.356 14.9814 60.0463 15.1328C49.1461 20.4648 41.3613 17.9664 33.1322 15.3308C24.4994 12.5658 15.5492 9.70935 3.18399 15.7472C2.83849 15.913 2.54693 16.173 2.34295 16.4974C2.13898 16.8218 2.03092 17.1973 2.03125 17.5804V48.0314C2.0312 48.3761 2.11884 48.7151 2.28593 49.0165C2.45301 49.3179 2.69405 49.5719 2.98634 49.7545C3.27864 49.937 3.61259 50.0423 3.95676 50.0602C4.30094 50.0781 4.64401 50.0082 4.95371 49.857C15.8539 44.525 23.6387 47.0234 31.8805 49.659C36.7656 51.2205 41.7422 52.8125 47.3687 52.8125C51.708 52.8125 56.4408 51.8679 61.8186 49.2426C62.1601 49.0758 62.448 48.8165 62.6496 48.4942C62.8511 48.172 62.9582 47.7996 62.9586 47.4195V16.9685C62.9617 16.623 62.8765 16.2824 62.7112 15.9789C62.546 15.6755 62.306 15.4192 62.0141 15.2344ZM58.9062 46.1271C48.5977 50.7406 41.0693 48.3336 33.1195 45.792C28.2344 44.2304 23.2578 42.6385 17.6313 42.6385C13.6782 42.6577 9.76534 43.4333 6.10391 44.9236V18.8728C16.4125 14.2594 23.9408 16.6664 31.8906 19.208C39.8404 21.7496 48.0238 24.375 58.9062 20.0814V46.1271ZM32.5 24.375C30.893 24.375 29.3221 24.8515 27.986 25.7443C26.6498 26.6371 25.6084 27.906 24.9935 29.3907C24.3785 30.8753 24.2176 32.509 24.5311 34.0851C24.8446 35.6612 25.6185 37.1089 26.7548 38.2452C27.8911 39.3815 29.3388 40.1554 30.9149 40.4689C32.491 40.7824 34.1247 40.6215 35.6093 40.0065C37.094 39.3915 38.3629 38.3501 39.2557 37.014C40.1485 35.6778 40.625 34.107 40.625 32.5C40.625 30.3451 39.769 28.2785 38.2452 26.7547C36.7215 25.231 34.6549 24.375 32.5 24.375ZM32.5 36.5625C31.6965 36.5625 30.9111 36.3242 30.243 35.8778C29.5749 35.4314 29.0542 34.797 28.7467 34.0546C28.4393 33.3123 28.3588 32.4955 28.5156 31.7074C28.6723 30.9194 29.0592 30.1955 29.6274 29.6274C30.1955 29.0592 30.9194 28.6723 31.7074 28.5155C32.4955 28.3588 33.3123 28.4392 34.0547 28.7467C34.797 29.0542 35.4315 29.5749 35.8778 30.243C36.3242 30.911 36.5625 31.6965 36.5625 32.5C36.5625 33.5774 36.1345 34.6107 35.3726 35.3726C34.6108 36.1345 33.5774 36.5625 32.5 36.5625ZM14.2188 24.375V36.5625C14.2188 37.1012 14.0047 37.6179 13.6238 37.9988C13.2429 38.3797 12.7262 38.5937 12.1875 38.5937C11.6488 38.5937 11.1321 38.3797 10.7512 37.9988C10.3703 37.6179 10.1563 37.1012 10.1563 36.5625V24.375C10.1563 23.8363 10.3703 23.3196 10.7512 22.9387C11.1321 22.5577 11.6488 22.3437 12.1875 22.3437C12.7262 22.3437 13.2429 22.5577 13.6238 22.9387C14.0047 23.3196 14.2188 23.8363 14.2188 24.375ZM50.7812 40.625V28.4375C50.7812 27.8988 50.9953 27.3821 51.3762 27.0012C51.7571 26.6202 52.2738 26.4062 52.8125 26.4062C53.3512 26.4062 53.8679 26.6202 54.2488 27.0012C54.6297 27.3821 54.8438 27.8988 54.8438 28.4375V40.625C54.8438 41.1637 54.6297 41.6804 54.2488 42.0613C53.8679 42.4422 53.3512 42.6562 52.8125 42.6562C52.2738 42.6562 51.7571 42.4422 51.3762 42.0613C50.9953 41.6804 50.7812 41.1637 50.7812 40.625Z" fill="black"/>
</svg>
